# xmcd CD database file
# Copyright (C) 1995-1998 Ti Kan
#
# Track frame offsets:
#	182
#	15295
#	28235
#	38815
#	53775
#	66887
#	81537
#	97195
#	111210
#	128667
#	138420
#	148870
#	159297
#	170802
#	181330
#
# Disc length: 2581 seconds
#
# Revision: 1
# Processed by: cddbd v1.4b41PL1 Copyright (c) Steve Scherf et al.
# Submitted via: CDex 1.30Release
#
DISCID=d30a130f
DTITLE=Kenny Rogers - For The Good Times
DYEAR=1900
DGENRE=Country
TTITLE0=For The Good Times
TTITLE1=Ruby, Don't Take Your Love To Town
TTITLE2=She Even Woke Me Up To Say Goodbye
TTITLE3=Conditions (Just Dropped In)
TTITLE4=Sleep Comes Easy
TTITLE5=Hear The Call
TTITLE6=My Washington Woman
TTITLE7=Sunshine
TTITLE8=Something's Burning
TTITLE9=Where Does Rosie Go
TTITLE10=Trying Just As Hard
TTITLE11=Ticket To Nowhere
TTITLE12=Poem For My Little Lady
TTITLE13=We All Got To Help Each Other
TTITLE14=Ruben James
EXTD=ID3G:   2
EXTT0=
EXTT1=
EXTT2=
EXTT3=
EXTT4=
EXTT5=
EXTT6=
EXTT7=
EXTT8=
EXTT9=
EXTT10=
EXTT11=
EXTT12=
EXTT13=
EXTT14=
PLAYORDER=
